<svg xmlns="http://www.w3.org/2000/svg" version="1.1" xmlns:xlink="http://www.w3.org/1999/xlink" xmlns:svgjs="http://svgjs.dev/svgjs" width="1000" height="234" viewBox="0 0 1000 234"><g transform="matrix(1,0,0,1,-0.6060594228025025,0.4561907127463627)"><svg viewBox="0 0 396 93" data-background-color="#010536" preserveAspectRatio="xMidYMid meet" height="234" width="1000" xmlns="http://www.w3.org/2000/svg" xmlns:xlink="http://www.w3.org/1999/xlink"><g id="tight-bounds" transform="matrix(1,0,0,1,0.23999976154550495,-0.18130656532227363)"><svg viewBox="0 0 395.52 93.36261313064456" height="93.36261313064456" width="395.52"><g><svg viewBox="0 0 611.3520376151912 144.3098295269477" height="93.36261313064456" width="395.52"><g><rect width="8.474875625685744" height="144.3098295269477" x="185.17162370237006" y="0" fill="#fbfbf8" opacity="1" stroke-width="0" stroke="transparent" fill-opacity="1" class="rect-o-0" data-fill-palette-color="primary" rx="1%" id="o-0" data-palette-color="#fbfbf8"></rect></g><g transform="matrix(1,0,0,1,215.83203761519124,0.3589796754401675)"><svg viewBox="0 0 395.52 143.59187017606737" height="143.59187017606737" width="395.52"><g id="textblocktransform"><svg viewBox="0 0 395.52 143.59187017606737" height="143.59187017606737" width="395.52" id="textblock"><g><svg viewBox="0 0 395.52 93.9762546262028" height="93.9762546262028" width="395.52"><g transform="matrix(1,0,0,1,0,0)"><svg width="395.52" viewBox="1.7000000476837158 -39.099998474121094 203.63999938964844 48.14999771118164" height="93.9762546262028" data-palette-color="#fbfbf8"><g class="undefined-text-0" data-fill-palette-color="primary" id="text-0"><path d="M17.15-35.4L17.15-35.4Q27-35.4 31.8-30.93 36.6-26.45 36.6-18.1L36.6-18.1Q36.6-12.65 34.25-8.58 31.9-4.5 27.43-2.25 22.95 0 16.7 0L16.7 0Q15.5 0 13.28-0.08 11.05-0.15 9.4-0.15L9.4-0.15Q7.2-0.15 5.08-0.13 2.95-0.1 1.7 0L1.7 0 1.7-1Q3.3-1.1 4.1-1.4 4.9-1.7 5.18-2.6 5.45-3.5 5.45-5.3L5.45-5.3 5.45-30.1Q5.45-31.95 5.18-32.83 4.9-33.7 4.08-34.02 3.25-34.35 1.7-34.4L1.7-34.4 1.7-35.4Q2.95-35.35 5.08-35.27 7.2-35.2 9.3-35.25L9.3-35.25Q11.1-35.3 13.38-35.35 15.65-35.4 17.15-35.4ZM17.1-34.5L17.1-34.5Q14.8-34.5 14.1-33.65 13.4-32.8 13.4-30.2L13.4-30.2 13.4-5.2Q13.4-2.6 14.13-1.75 14.85-0.9 17.15-0.9L17.15-0.9Q21.35-0.9 23.78-2.88 26.2-4.85 27.25-8.65 28.3-12.45 28.3-17.9L28.3-17.9Q28.3-26.3 25.7-30.4 23.1-34.5 17.1-34.5ZM52.9-26.55L52.9-26.55Q57.3-26.55 59.8-23.95 62.3-21.35 62.3-15.45L62.3-15.45 45.85-15.45 45.75-16.4 56-16.4Q56.05-18.85 55.7-20.93 55.35-23 54.6-24.25 53.85-25.5 52.6-25.5L52.6-25.5Q50.85-25.5 49.62-23.3 48.4-21.1 48.15-16L48.15-16 48.3-15.7Q48.25-15.1 48.22-14.45 48.2-13.8 48.2-13.1L48.2-13.1Q48.2-9.65 49.17-7.5 50.15-5.35 51.65-4.38 53.15-3.4 54.7-3.4L54.7-3.4Q56.2-3.4 57.97-4.15 59.75-4.9 61.3-7.4L61.3-7.4 62.2-7.1Q61.6-5.2 60.3-3.4 59-1.6 57-0.45 55 0.7 52.2 0.7L52.2 0.7Q48.8 0.7 46.2-0.75 43.6-2.2 42.12-5.15 40.65-8.1 40.65-12.65L40.65-12.65Q40.65-17.3 42.22-20.4 43.8-23.5 46.57-25.03 49.35-26.55 52.9-26.55ZM89.35-25.85L89.35-25.85 89.35-24.85Q88.4-24.6 87.55-23.68 86.7-22.75 85.9-20.55L85.9-20.55 78.6 0.1Q77.8 0.05 76.97 0.05 76.15 0.05 75.35 0.1L75.35 0.1 66.45-22Q65.65-23.95 64.87-24.38 64.1-24.8 63.55-24.8L63.55-24.8 63.55-25.85Q65.15-25.75 66.87-25.68 68.6-25.6 70.65-25.6L70.65-25.6Q72.2-25.6 73.92-25.68 75.65-25.75 77.15-25.85L77.15-25.85 77.15-24.8Q76.1-24.8 75.27-24.7 74.45-24.6 74.15-24.05 73.85-23.5 74.25-22.1L74.25-22.1 80.1-6.6 79.6-5.9 83.55-16.85Q84.95-20.9 84-22.78 83.05-24.65 80.7-24.85L80.7-24.85 80.7-25.85Q81.85-25.8 83.17-25.75 84.5-25.7 85.5-25.7L85.5-25.7Q86.5-25.7 87.6-25.75 88.7-25.8 89.35-25.85ZM103.59-36.05L103.59-36.05Q106.54-36.05 108.14-35.43 109.74-34.8 110.89-34.1L110.89-34.1Q111.49-33.75 111.87-33.58 112.24-33.4 112.59-33.4L112.59-33.4Q113.39-33.4 113.69-35.6L113.69-35.6 114.84-35.6Q114.79-34.65 114.72-33.33 114.64-32 114.62-29.85 114.59-27.7 114.59-24.2L114.59-24.2 113.44-24.2Q113.24-26.8 112.24-29.25 111.24-31.7 109.42-33.27 107.59-34.85 104.94-34.85L104.94-34.85Q102.54-34.85 100.99-33.5 99.44-32.15 99.44-29.75L99.44-29.75Q99.44-27.75 100.44-26.33 101.44-24.9 103.37-23.55 105.29-22.2 108.04-20.3L108.04-20.3Q110.44-18.75 112.34-17.2 114.24-15.65 115.39-13.7 116.54-11.75 116.54-9.05L116.54-9.05Q116.54-5.75 114.82-3.6 113.09-1.45 110.29-0.38 107.49 0.7 104.14 0.7L104.14 0.7Q101.04 0.7 99.19 0.1 97.34-0.5 96.09-1.15L96.09-1.15Q94.99-1.85 94.39-1.85L94.39-1.85Q93.59-1.85 93.29 0.35L93.29 0.35 92.14 0.35Q92.24-0.85 92.27-2.45 92.29-4.05 92.32-6.63 92.34-9.2 92.34-13.15L92.34-13.15 93.49-13.15Q93.69-9.85 94.62-6.98 95.54-4.1 97.47-2.35 99.39-0.6 102.59-0.6L102.59-0.6Q105.19-0.6 106.99-2 108.79-3.4 108.79-6.2L108.79-6.2Q108.79-9.3 106.69-11.33 104.59-13.35 101.29-15.5L101.29-15.5Q98.94-17.05 96.89-18.6 94.84-20.15 93.62-22.15 92.39-24.15 92.39-26.9L92.39-26.9Q92.39-30.05 93.97-32.08 95.54-34.1 98.12-35.08 100.69-36.05 103.59-36.05ZM129.94-39.1L129.94-39.1 129.94-21.9Q131.19-24.5 133.32-25.53 135.44-26.55 138.09-26.55L138.09-26.55Q140.24-26.55 141.54-26.03 142.84-25.5 143.59-24.6L143.59-24.6Q144.44-23.65 144.82-22.15 145.19-20.65 145.19-18.1L145.19-18.1 145.19-4.65Q145.19-2.55 145.92-1.8 146.64-1.05 148.39-1.05L148.39-1.05 148.39 0Q147.44-0.05 145.52-0.13 143.59-0.2 141.79-0.2L141.79-0.2Q139.84-0.2 138.02-0.13 136.19-0.05 135.29 0L135.29 0 135.29-1.05Q136.79-1.05 137.39-1.8 137.99-2.55 137.99-4.65L137.99-4.65 137.99-20.2Q137.99-21.45 137.74-22.38 137.49-23.3 136.82-23.83 136.14-24.35 134.89-24.35L134.89-24.35Q132.84-24.35 131.39-22.75 129.94-21.15 129.94-18.6L129.94-18.6 129.94-4.65Q129.94-2.55 130.54-1.8 131.14-1.05 132.64-1.05L132.64-1.05 132.64 0Q131.74-0.05 129.99-0.13 128.24-0.2 126.44-0.2L126.44-0.2Q124.49-0.2 122.52-0.13 120.54-0.05 119.54 0L119.54 0 119.54-1.05Q121.29-1.05 122.02-1.8 122.74-2.55 122.74-4.65L122.74-4.65 122.74-33.1Q122.74-35.35 122.07-36.43 121.39-37.5 119.54-37.5L119.54-37.5 119.54-38.55Q121.14-38.4 122.64-38.4L122.64-38.4Q124.69-38.4 126.54-38.58 128.39-38.75 129.94-39.1ZM163.09-26.55L163.09-26.55Q166.74-26.55 169.49-25.2 172.24-23.85 173.79-20.85 175.34-17.85 175.34-12.9L175.34-12.9Q175.34-7.95 173.79-4.98 172.24-2 169.49-0.65 166.74 0.7 163.09 0.7L163.09 0.7Q159.54 0.7 156.76-0.65 153.99-2 152.41-4.98 150.84-7.95 150.84-12.9L150.84-12.9Q150.84-17.85 152.41-20.85 153.99-23.85 156.76-25.2 159.54-26.55 163.09-26.55ZM163.09-25.55L163.09-25.55Q161.09-25.55 159.74-22.58 158.39-19.6 158.39-12.9L158.39-12.9Q158.39-6.2 159.74-3.25 161.09-0.3 163.09-0.3L163.09-0.3Q165.14-0.3 166.46-3.25 167.79-6.2 167.79-12.9L167.79-12.9Q167.79-19.6 166.46-22.58 165.14-25.55 163.09-25.55ZM188.64-26.4L188.64-26.4 188.64 4.1Q188.64 6.45 189.84 7.23 191.04 8 193.14 8L193.14 8 193.14 9.05Q191.84 9 189.56 8.93 187.29 8.85 184.74 8.85L184.74 8.85Q182.89 8.85 181.11 8.93 179.34 9 178.44 9.05L178.44 9.05 178.44 8Q180.09 8 180.76 7.3 181.44 6.6 181.44 4.6L181.44 4.6 181.44-20.4Q181.44-22.65 180.74-23.73 180.04-24.8 178.24-24.8L178.24-24.8 178.24-25.85Q179.84-25.7 181.34-25.7L181.34-25.7Q183.39-25.7 185.24-25.88 187.09-26.05 188.64-26.4ZM196.39-26.55L196.39-26.55Q200.19-26.55 202.76-23.45 205.34-20.35 205.34-14.1L205.34-14.1Q205.34-9.25 203.89-5.95 202.44-2.65 199.86-0.98 197.29 0.7 193.74 0.7L193.74 0.7Q191.79 0.7 190.19 0.03 188.59-0.65 187.74-1.9L187.74-1.9 188.24-2.55Q188.74-1.65 189.66-1.15 190.59-0.65 191.79-0.65L191.79-0.65Q194.04-0.65 195.34-2.18 196.64-3.7 197.21-6.48 197.79-9.25 197.79-13.1L197.79-13.1Q197.79-17.4 197.24-19.85 196.69-22.3 195.74-23.35 194.79-24.4 193.44-24.4L193.44-24.4Q191.64-24.4 190.16-23 188.69-21.6 188.49-19L188.49-19 188.24-20.75Q189.14-23.6 191.31-25.08 193.49-26.55 196.39-26.55Z" fill="#fbfbf8" data-fill-palette-color="primary"></path></g></svg></g></svg></g><g transform="matrix(1,0,0,1,0,116.16179291333826)"><svg viewBox="0 0 232.209792 27.43007726272912" height="27.43007726272912" width="232.209792"><g transform="matrix(1,0,0,1,0,0)"><svg width="232.209792" viewBox="3.5 -35 392.5199890136719 46.400001525878906" height="27.43007726272912" data-palette-color="#fbfbf8"><g class="undefined-text-1" data-fill-palette-color="secondary" id="text-1"><path d="M27.55-17.5L27.55-17.5Q27.5-9.15 22.93-4.58 18.35 0 10.3 0L10.3 0 3.5 0 3.5-35 10.3-35Q18.35-35 22.93-30.43 27.5-25.85 27.55-17.5ZM8.2-4.4L10.9-4.4Q16.45-4.4 19.43-8.08 22.4-11.75 22.5-17.5L22.5-17.5Q22.4-23.25 19.43-26.93 16.45-30.6 10.9-30.6L10.9-30.6 8.2-30.6 8.2-4.4ZM45.3-24.5L45.3-24.5Q53.8-24.15 53.8-17.45L53.8-17.45Q53.8-9.1 42.85-9.1L42.85-9.1 40.8-9.1 40.8-12.95 43.2-12.95Q46.55-12.95 47.85-13.98 49.15-15 49.15-17.4L49.15-17.4Q49.15-18.95 48-19.73 46.85-20.5 45.05-20.5L45.05-20.5Q41.5-20.5 39.47-18 37.45-15.5 37.45-12L37.45-12Q37.45-8.3 39.62-6 41.8-3.7 45.3-3.7L45.3-3.7Q48.45-3.7 50.45-5.25L50.45-5.25 53.45-2.3Q50 0.5 45.3 0.5L45.3 0.5Q39.6 0.5 36.2-2.85 32.8-6.2 32.8-11.5L32.8-11.5Q32.8-17.4 36.15-21.05 39.5-24.7 45.3-24.5ZM67.4 0.55L67.4 0.55Q63.09-3.5 61.07-8.4 59.05-13.3 57.05-24L57.05-24 61.65-24Q63.59-11.95 67.4-5.75L67.4-5.75Q71.2-11.95 73.15-24L73.15-24 77.75-24Q75.75-13.3 73.72-8.4 71.7-3.5 67.4 0.55ZM93.74-24.5L93.74-24.5Q102.24-24.15 102.24-17.45L102.24-17.45Q102.24-9.1 91.29-9.1L91.29-9.1 89.24-9.1 89.24-12.95 91.64-12.95Q94.99-12.95 96.29-13.98 97.59-15 97.59-17.4L97.59-17.4Q97.59-18.95 96.44-19.73 95.29-20.5 93.49-20.5L93.49-20.5Q89.94-20.5 87.92-18 85.89-15.5 85.89-12L85.89-12Q85.89-8.3 88.07-6 90.24-3.7 93.74-3.7L93.74-3.7Q96.89-3.7 98.89-5.25L98.89-5.25 101.89-2.3Q98.44 0.5 93.74 0.5L93.74 0.5Q88.04 0.5 84.64-2.85 81.24-6.2 81.24-11.5L81.24-11.5Q81.24-17.4 84.59-21.05 87.94-24.7 93.74-24.5ZM107.24-9.5L107.24-9.5 107.24-35 111.74-35 111.74-9.5Q111.74-7.7 112.17-6.58 112.59-5.45 113.49-4.98 114.39-4.5 115.24-4.35 116.09-4.2 117.49-4.2L117.49-4.2 117.49 0Q111.89 0 109.57-2.15 107.24-4.3 107.24-9.5ZM123.49-20.85L123.49-20.85Q126.99-24.5 132.24-24.5L132.24-24.5Q134.79-24.5 137.01-23.53 139.24-22.55 140.91-20.85 142.59-19.15 143.54-16.88 144.49-14.6 144.49-12L144.49-12Q144.49-9.4 143.56-7.13 142.64-4.85 140.99-3.15 139.34-1.45 137.09-0.48 134.84 0.5 132.24 0.5L132.24 0.5Q129.59 0.5 127.36-0.48 125.14-1.45 123.49-3.15 121.84-4.85 120.91-7.13 119.99-9.4 119.99-12L119.99-12Q119.99-17.3 123.49-20.85ZM132.24-20.3L132.24-20.3Q128.74-20.3 126.61-18 124.49-15.7 124.49-12 124.49-8.3 126.61-6 128.74-3.7 132.24-3.7L132.24-3.7Q135.79-3.7 137.89-6.03 139.99-8.35 139.99-12 139.99-15.65 137.89-17.98 135.79-20.3 132.24-20.3ZM154.24 11.4L149.74 11.4 149.74-12Q149.74-14.6 150.69-16.9 151.64-19.2 153.29-20.88 154.94-22.55 157.19-23.53 159.44-24.5 161.99-24.5L161.99-24.5Q164.54-24.5 166.76-23.53 168.99-22.55 170.66-20.85 172.34-19.15 173.29-16.88 174.24-14.6 174.24-12L174.24-12Q174.24-9.4 173.31-7.13 172.39-4.85 170.74-3.15 169.09-1.45 166.84-0.48 164.59 0.5 161.99 0.5L161.99 0.5Q158.79 0.5 156.04-1L156.04-1 156.04-5.5Q158.49-3.7 161.84-3.7L161.84-3.7Q163.64-3.7 165.11-4.33 166.59-4.95 167.61-6.05 168.64-7.15 169.19-8.68 169.74-10.2 169.74-12L169.74-12Q169.74-13.8 169.19-15.33 168.64-16.85 167.64-17.95 166.64-19.05 165.21-19.68 163.79-20.3 161.99-20.3L161.99-20.3Q160.24-20.3 158.81-19.7 157.39-19.1 156.36-18 155.34-16.9 154.79-15.38 154.24-13.85 154.24-12L154.24-12 154.24 11.4ZM191.23-24.5L191.23-24.5Q199.73-24.15 199.73-17.45L199.73-17.45Q199.73-9.1 188.78-9.1L188.78-9.1 186.73-9.1 186.73-12.95 189.13-12.95Q192.48-12.95 193.78-13.98 195.08-15 195.08-17.4L195.08-17.4Q195.08-18.95 193.93-19.73 192.78-20.5 190.98-20.5L190.98-20.5Q187.43-20.5 185.41-18 183.38-15.5 183.38-12L183.38-12Q183.38-8.3 185.56-6 187.73-3.7 191.23-3.7L191.23-3.7Q194.38-3.7 196.38-5.25L196.38-5.25 199.38-2.3Q195.93 0.5 191.23 0.5L191.23 0.5Q185.53 0.5 182.13-2.85 178.73-6.2 178.73-11.5L178.73-11.5Q178.73-17.4 182.08-21.05 185.43-24.7 191.23-24.5ZM208.38 0L203.98 0 203.98-13.65Q203.98-19.4 206.13-21.6L206.13-21.6Q207.18-22.7 208.68-23.25 210.18-23.8 211.31-23.9 212.43-24 214.38-24L214.38-24 218.78-24 218.78-19.8 213.48-19.8Q212.48-19.8 211.93-19.75 211.38-19.7 210.63-19.4 209.88-19.1 209.33-18.45L209.33-18.45Q208.38-17.25 208.38-13.65L208.38-13.65 208.38 0Z" fill="#fbfbf8" data-fill-palette-color="primary"></path><path d="M232.93 0L232.93 0Q228.03 0 224.53-3.3 221.03-6.6 221.03-11.75L221.03-11.75Q221.03-16.95 224.56-20.48 228.08-24 233.28-24L233.28-24 245.03-24 245.03-0.7Q245.03 1.55 244.46 3.35 243.88 5.15 242.83 6.4 241.78 7.65 240.93 8.35 240.08 9.05 238.88 9.8L238.88 9.8Q235.78 11.4 231.33 11.4L231.33 11.4 225.73 11.4 225.73 7.2 230.88 7.2Q235.28 7.2 237.13 6.1L237.13 6.1Q240.53 4.2 240.53-0.2L240.53-0.2 240.53-19.8 233.28-19.8Q229.73-19.8 227.63-17.6 225.53-15.4 225.53-11.75L225.53-11.75Q225.53-8.25 227.71-6.23 229.88-4.2 232.93-4.2L232.93-4.2Q236.23-4.2 238.73-6L238.73-6 238.73-1.5Q236.03 0 232.93 0ZM264.63-14.1L264.63-14.1 264.63-9.6Q262.73-11.05 259.98-11.05L259.98-11.05Q257.63-11.05 256.33-10.13 255.03-9.2 255.03-7.5L255.03-7.5Q255.03-4.2 259.93-4.2L259.93-4.2 266.53-4.2 266.53-13.75Q266.53-19.8 260.63-19.8L260.63-19.8 252.63-19.8 252.63-24 260.88-24Q265.73-24 268.33-21.6 270.93-19.2 270.93-14.7L270.93-14.7 270.93 0 259.78 0Q255.53 0 253.03-1.9 250.53-3.8 250.53-7.45 250.53-11.1 253.18-13 255.83-14.9 259.83-14.9L259.83-14.9Q262.08-14.9 264.63-14.1ZM295.18-4.2L295.18-35 299.68-35 299.68 0 287.93 0Q282.48 0 279.08-3.48 275.68-6.95 275.68-12.25L275.68-12.25Q275.68-17.45 279.2-20.98 282.73-24.5 287.58-24.5L287.58-24.5Q290.68-24.5 293.37-23L293.37-23 293.37-18.5Q290.87-20.3 287.58-20.3L287.58-20.3Q284.58-20.3 282.5-18.07 280.43-15.85 280.43-12.25L280.43-12.25Q280.43-8.6 282.4-6.4 284.37-4.2 287.93-4.2L287.93-4.2 295.18-4.2ZM316.82 0L316.82 0Q311.92 0 308.42-3.3 304.92-6.6 304.92-11.75L304.92-11.75Q304.92-16.95 308.45-20.48 311.97-24 317.17-24L317.17-24 328.92-24 328.92-0.7Q328.92 1.55 328.35 3.35 327.77 5.15 326.72 6.4 325.67 7.65 324.82 8.35 323.97 9.05 322.77 9.8L322.77 9.8Q319.67 11.4 315.22 11.4L315.22 11.4 309.62 11.4 309.62 7.2 314.77 7.2Q319.17 7.2 321.02 6.1L321.02 6.1Q324.42 4.2 324.42-0.2L324.42-0.2 324.42-19.8 317.17-19.8Q313.62-19.8 311.52-17.6 309.42-15.4 309.42-11.75L309.42-11.75Q309.42-8.25 311.6-6.23 313.77-4.2 316.82-4.2L316.82-4.2Q320.12-4.2 322.62-6L322.62-6 322.62-1.5Q319.92 0 316.82 0ZM346.92-24.5L346.92-24.5Q355.42-24.15 355.42-17.45L355.42-17.45Q355.42-9.1 344.47-9.1L344.47-9.1 342.42-9.1 342.42-12.95 344.82-12.95Q348.17-12.95 349.47-13.98 350.77-15 350.77-17.4L350.77-17.4Q350.77-18.95 349.62-19.73 348.47-20.5 346.67-20.5L346.67-20.5Q343.12-20.5 341.1-18 339.07-15.5 339.07-12L339.07-12Q339.07-8.3 341.25-6 343.42-3.7 346.92-3.7L346.92-3.7Q350.07-3.7 352.07-5.25L352.07-5.25 355.07-2.3Q351.62 0.5 346.92 0.5L346.92 0.5Q341.22 0.5 337.82-2.85 334.42-6.2 334.42-11.5L334.42-11.5Q334.42-17.4 337.77-21.05 341.12-24.7 346.92-24.5ZM362.37-19.8L357.92-19.8 366.87-28.75 366.87-24 373.62-24 373.62-19.8 366.87-19.8 366.87-9.5Q366.87-7.75 367.44-6.6 368.02-5.45 369.12-4.98 370.22-4.5 371.19-4.35 372.17-4.2 373.62-4.2L373.62-4.2 373.62 0Q367.87 0 365.12-2.2 362.37-4.4 362.37-9.5L362.37-9.5 362.37-19.8ZM386.17-24L395.02-24 395.02-19.8 386.17-19.8Q384.72-19.8 383.67-19.25 382.62-18.7 382.62-17.7L382.62-17.7Q382.62-17.1 382.87-16.63 383.12-16.15 383.44-15.85 383.77-15.55 384.44-15.23 385.12-14.9 385.49-14.78 385.87-14.65 388.67-13.75 391.47-12.85 392.81-12.25 394.17-11.65 394.89-10.63 395.62-9.6 395.82-8.63 396.02-7.65 396.02-6.7L396.02-6.7Q396.02 0 386.81 0L386.81 0 378.17 0 378.17-4.2 386.81-4.2Q391.52-4.2 391.52-6.7L391.52-6.7Q391.52-7.9 390.14-8.7 388.77-9.5 386.79-10.05 384.81-10.6 382.84-11.33 380.87-12.05 379.49-13.68 378.12-15.3 378.12-17.7L378.12-17.7Q378.12-20.75 380.47-22.38 382.81-24 386.17-24L386.17-24Z" fill="#42ff00" data-fill-palette-color="accent"></path></g></svg></g></svg></g></svg></g></svg></g><g transform="matrix(1,0,0,1,0,0.3589796754401675)"><svg viewBox="0 0 162.9860854152346 143.59187017606737" height="143.59187017606737" width="162.9860854152346"><g><svg xmlns="http://www.w3.org/2000/svg" xmlns:xlink="http://www.w3.org/1999/xlink" version="1.1" x="0" y="0" viewBox="6.300000190734863 11.5 87.39999389648438 77" style="enable-background:new 0 0 100 100;" xml:space="preserve" height="143.59187017606737" width="162.9860854152346" class="icon-icon-0" data-fill-palette-color="accent" id="icon-0"><path d="M72.3 12.3L72.3 12.3 72.3 12.3l-0.4-0.8H28.2L6.3 50l21.8 38.5h43.7L93.7 50 72.3 12.3zM33.3 25.3L9.9 47.7l18.6-32.8L33.3 25.3zM70.7 14.8l6.4 35.7L36.9 25.8 70.7 14.8zM35.5 27.3l41 25.2-41 23.3V27.3zM77 54.5l-7.2 30.8-32.6-8.1L77 54.5zM33.5 75L9.9 50.5l23.6-22.7V75zM33.2 77.6l-4.6 7.7L11.5 55.1 33.2 77.6zM35 78.6l31.4 7.9H30.2L35 78.6zM79.3 53.3l11.6-2.5L72.1 84 79.3 53.3zM90.7 48.9l-11.4 2.5-5.9-33.1L90.7 48.9zM35 24.3l-5-10.8h38.2L35 24.3z" fill="#42ff00" data-fill-palette-color="accent"></path></svg></g></svg></g></svg></g><defs></defs></svg><rect width="395.52" height="93.36261313064456" fill="none" stroke="none" visibility="hidden"></rect></g></svg></g></svg>